<svg width="88" height="44" viewBox="0 0 88 44" fill="none" xmlns="http://www.w3.org/2000/svg">
<path d="M50.2856 5.65234V15.6599C50.2856 16.6603 50.5328 17.4309 51.0274 17.9716C51.5228 18.5117 52.2502 18.7816 53.2095 18.7816C54.1679 18.7816 54.9024 18.5117 55.4134 17.9716C55.925 17.4309 56.1808 16.6603 56.1808 15.6599V5.65234H60.2789V15.6357C60.2789 17.1295 59.9592 18.3925 59.3196 19.4251C58.6807 20.457 57.8222 21.2352 56.7436 21.7597C55.6657 22.2836 54.4637 22.5456 53.1379 22.5456C51.8109 22.5456 50.6245 22.2875 49.5783 21.7712C48.532 21.2549 47.7051 20.4767 47.0981 19.4365C46.4909 18.3963 46.1874 17.1295 46.1874 15.6357V5.65234H50.2856Z" fill="#DE5C8E"/>
<path d="M73.178 18.0873H65.1967L63.5914 22.3764H62.4172L68.6003 6.03125H69.7987L75.9587 22.3764H74.7846L73.178 18.0873ZM72.8429 17.1819L69.2001 7.43637L65.533 17.1819H72.8429Z" fill="#DE5C8E"/>
<path d="M87.9625 5.65234V6.55773H83.1686V22.379H82.0903V6.55773H77.2964V5.65234H87.9625Z" fill="#DE5C8E"/>
<path d="M32.6252 28.8514H43.1839C42.2144 31.7847 40.6968 34.3937 38.6317 36.6781C36.5664 38.9619 34.1217 40.7533 31.2975 42.0519C28.4734 43.3508 25.417 44 22.1292 44C19.0943 44 16.2384 43.4345 13.562 42.3037C10.8852 41.172 8.52436 39.5901 6.47977 37.5581C4.43581 35.5254 2.84465 33.1783 1.70628 30.5172C0.568546 27.8564 0 25.0172 0 22C0 18.9831 0.568546 16.144 1.70628 13.4828C2.84465 10.822 4.43581 8.47523 6.47977 6.44321C8.52436 4.41055 10.8852 2.82868 13.562 1.69759C16.2384 0.565863 19.0943 0 22.1292 0C25.417 0 28.4625 0.649789 31.2656 1.94937C34.0683 3.24831 36.5024 5.0187 38.5678 7.26085C40.6338 9.50237 42.1517 12.0898 43.1213 15.0227H32.5625C31.6774 13.095 30.2653 11.576 28.3263 10.4653C26.3872 9.35486 24.3215 8.79949 22.1292 8.79949C19.8115 8.79949 17.7039 9.39683 15.8067 10.5912C13.9102 11.7859 12.4035 13.3782 11.2865 15.3686C10.1692 17.3593 9.61093 19.5696 9.61093 22C9.61093 24.4307 10.1692 26.641 11.2865 28.6314C12.4035 30.6221 13.9102 32.2145 15.8067 33.4088C17.7039 34.6035 19.8115 35.2005 22.1292 35.2005C24.3631 35.2005 26.4499 34.614 28.3889 33.4406C30.328 32.2676 31.7401 30.7378 32.6252 28.8514Z" fill="#DE5C8E"/>
<path d="M50.3575 39.7695H55.7258V42.9142H46.2594V26.1875H50.3575V39.7695Z" fill="#DE5C8E"/>
<path d="M61.7155 26.1875V36.195C61.7155 37.1954 61.9627 37.966 62.4574 38.5068C62.9527 39.0469 63.6802 39.3168 64.6395 39.3168C65.5978 39.3168 66.3323 39.0469 66.8433 38.5068C67.3549 37.966 67.6107 37.1954 67.6107 36.195V26.1875H71.7089V36.1709C71.7089 37.6647 71.3891 38.9277 70.7496 39.9602C70.1107 40.9921 69.2521 41.7704 68.1735 42.2949C67.0956 42.8188 65.8936 43.0807 64.5678 43.0807C63.2408 43.0807 62.0545 42.8226 61.0082 42.3063C59.9619 41.7901 59.135 41.0118 58.5281 39.9717C57.9208 38.9315 57.6174 37.6647 57.6174 36.1709V26.1875H61.7155Z" fill="#DE5C8E"/>
<path d="M84.764 34.3359C85.7386 34.5429 86.5214 35.0236 87.1123 35.7779C87.7039 36.5326 88 37.3941 88 38.3631C88 39.7612 87.5082 40.8691 86.5252 41.6871C85.5429 42.5053 84.173 42.9142 82.4156 42.9142H74.5787V26.1875H82.1521C83.8616 26.1875 85.1995 26.5766 86.1658 27.3548C87.1328 28.1331 87.6163 29.1894 87.6163 30.5237C87.6163 31.5088 87.3566 32.3274 86.8373 32.9791C86.318 33.6302 85.6267 34.0826 84.764 34.3359ZM78.6769 32.955H81.3616C82.0325 32.955 82.5477 32.8081 82.9068 32.5137C83.2665 32.2197 83.4465 31.787 83.4465 31.2154C83.4465 30.6432 83.2665 30.2064 82.9068 29.9044C82.5477 29.6027 82.0325 29.4517 81.3616 29.4517H78.6769V32.955ZM81.6968 39.6258C82.3839 39.6258 82.9151 39.4713 83.2905 39.1617C83.6656 38.8514 83.8533 38.4025 83.8533 37.815C83.8533 37.2276 83.6576 36.7672 83.2662 36.4341C82.8748 36.1003 82.3353 35.9331 81.6482 35.9331H78.6769V39.6258H81.6968Z" fill="#DE5C8E"/>
</svg>
