<svg width="44" height="44" viewBox="0 0 44 44" fill="none" xmlns="http://www.w3.org/2000/svg">
<path d="M32.6252 28.8514H43.1839C42.2144 31.7847 40.6968 34.3937 38.6317 36.6781C36.5664 38.9619 34.1217 40.7533 31.2975 42.0519C28.4734 43.3508 25.417 44 22.1292 44C19.0943 44 16.2384 43.4345 13.562 42.3037C10.8852 41.172 8.52436 39.5901 6.47977 37.5581C4.43581 35.5254 2.84465 33.1783 1.70628 30.5172C0.568546 27.8564 0 25.0172 0 22C0 18.9831 0.568546 16.144 1.70628 13.4828C2.84465 10.822 4.43581 8.47523 6.47977 6.44321C8.52436 4.41055 10.8852 2.82868 13.562 1.69759C16.2384 0.565863 19.0943 0 22.1292 0C25.417 0 28.4625 0.649789 31.2656 1.94937C34.0683 3.24831 36.5024 5.0187 38.5678 7.26085C40.6338 9.50237 42.1517 12.0898 43.1213 15.0227H32.5625C31.6774 13.095 30.2653 11.576 28.3263 10.4653C26.3872 9.35486 24.3215 8.79949 22.1292 8.79949C19.8115 8.79949 17.7039 9.39683 15.8067 10.5912C13.9102 11.7859 12.4035 13.3782 11.2865 15.3686C10.1692 17.3593 9.61093 19.5696 9.61093 22C9.61093 24.4307 10.1692 26.641 11.2865 28.6314C12.4035 30.6221 13.9102 32.2145 15.8067 33.4088C17.7039 34.6035 19.8115 35.2005 22.1292 35.2005C24.3631 35.2005 26.4499 34.614 28.3889 33.4406C30.328 32.2676 31.7401 30.7378 32.6252 28.8514Z" fill="#DE5C8E"/>
</svg>
